<?xml version="1.0" encoding="iso-8859-1"?>
<!-- Generator: Adobe Illustrator 19.0.0, SVG Export Plug-In . SVG Version: 6.00 Build 0)  -->
<svg version="1.1" id="Capa_1" xmlns="http://www.w3.org/2000/svg" xmlns:xlink="http://www.w3.org/1999/xlink" x="0px" y="0px"
	 viewBox="0 0 512 512" style="enable-background:new 0 0 512 512;" xml:space="preserve">
<linearGradient id="SVGID_1_" gradientUnits="userSpaceOnUse" x1="400.7916" y1="470.0058" x2="351.6516" y2="407.6108" gradientTransform="matrix(1.0039 0 0 -1.0039 0.1922 516.5618)">
	<stop  offset="0" style="stop-color:#FFE7A5"/>
	<stop  offset="0.966" style="stop-color:#FFBF5C"/>
</linearGradient>
<path style="fill:url(#SVGID_1_);" d="M304.138,7.811c-7.823,0-15.55,0.461-23.135,1.359c-3.131,13.718-6.121,32.281-7.917,56.905
	c9.984-2.257,20.383-3.438,31.052-3.438c70.706,0,129.254,52.084,139.356,119.978c14.073-18.149,27.129-38.65,38.142-61.679
	C450.489,54.117,382.725,7.811,304.138,7.811z"/>
<linearGradient id="SVGID_2_" gradientUnits="userSpaceOnUse" x1="380.0706" y1="403.481" x2="338.7306" y2="363.701" gradientTransform="matrix(1.0039 0 0 -1.0039 0.1922 516.5618)">
	<stop  offset="0" style="stop-color:#FFE7A5"/>
	<stop  offset="0.966" style="stop-color:#FFBF5C"/>
</linearGradient>
<path style="fill:url(#SVGID_2_);" d="M287.808,80.266c-5.27,0-10.481,0.26-15.621,0.78c-0.626,13.068-0.91,27.602-0.745,43.743
	c5.341-0.791,10.8-1.206,16.365-1.206c60.001,0,108.931,47.476,111.234,106.922c12.595-11.415,25.216-24.341,37.256-38.898
	C417.582,127.282,358.183,80.266,287.808,80.266z"/>
<linearGradient id="SVGID_3_" gradientUnits="userSpaceOnUse" x1="330.2679" y1="428.8632" x2="211.808" y2="547.3232" gradientTransform="matrix(1.0039 0 0 -1.0039 0.1922 516.5618)">
	<stop  offset="0" style="stop-color:#FF931E;stop-opacity:0"/>
	<stop  offset="1" style="stop-color:#D54003"/>
</linearGradient>
<path style="fill:url(#SVGID_3_);" d="M292.616,8.148c-3.903,0.227-7.776,0.567-11.613,1.022
	c-3.131,13.718-6.121,32.281-7.917,56.905c9.984-2.257,20.383-3.438,31.052-3.438c18.928,0,36.983,3.736,53.472,10.505
	L292.616,8.148z"/>
<linearGradient id="SVGID_4_" gradientUnits="userSpaceOnUse" x1="319.5059" y1="391.6411" x2="253.0959" y2="458.0411" gradientTransform="matrix(1.0039 0 0 -1.0039 0.1922 516.5618)">
	<stop  offset="0" style="stop-color:#FF931E;stop-opacity:0"/>
	<stop  offset="1" style="stop-color:#D54003"/>
</linearGradient>
<path style="fill:url(#SVGID_4_);" d="M292.615,80.194l39.403,39.403c0,0-27.472-8.382-41.247-11.529
	C290.77,108.068,287.866,95.051,292.615,80.194z"/>
<linearGradient id="SVGID_5_" gradientUnits="userSpaceOnUse" x1="399.153" y1="144.6746" x2="-1.827" y2="31.4547" gradientTransform="matrix(1.0039 0 0 -1.0039 0.1922 516.5618)">
	<stop  offset="0" style="stop-color:#FFE7A5"/>
	<stop  offset="0.966" style="stop-color:#FFBF5C"/>
</linearGradient>
<ellipse style="fill:url(#SVGID_5_);" cx="249.585" cy="414.048" rx="154.032" ry="97.953"/>
<linearGradient id="SVGID_6_" gradientUnits="userSpaceOnUse" x1="171.8792" y1="370.4144" x2="428.6392" y2="113.6544" gradientTransform="matrix(1.0039 0 0 -1.0039 0.1922 516.5618)">
	<stop  offset="0" style="stop-color:#FF931E"/>
	<stop  offset="0.252" style="stop-color:#FF8E1B"/>
	<stop  offset="0.56" style="stop-color:#FF7F13"/>
	<stop  offset="0.895" style="stop-color:#FF6605"/>
	<stop  offset="1" style="stop-color:#FF5D00"/>
</linearGradient>
<path style="fill:url(#SVGID_6_);" d="M421.658,152.35c-11.946,26.063-27.67,52.34-44.351,75.745
	c-18.327,25.711-58.105,20.225-68.946-9.429c-11.438-31.287-17.748-65.574-17.748-101.535c0-2.227,0.026-4.426,0.079-6.626
	c0-0.822,0.026-1.617,0.079-2.439c0.053-2.279,0.133-4.559,0.265-6.812c0.106-2.305,0.265-4.558,0.451-6.838
	c0.026-0.663,0.079-1.299,0.133-1.935c0.16-2.147,0.371-4.294,0.583-6.414c0.026-0.159,0.026-0.291,0.053-0.451
	c0.239-2.465,0.53-4.929,0.848-7.368c0.026-0.239,0.053-0.451,0.106-0.689c0.291-2.226,0.609-4.452,0.954-6.652
	c0.451-2.968,0.955-5.936,1.511-8.878c0.424-2.306,0.874-4.585,1.351-6.838c0.503-2.411,1.033-4.824,1.616-7.209
	c0.026-0.133,0.053-0.239,0.079-0.345c0.115-0.476,0.905-2.986,2.051-6.569c6.156-19.243-7.226-39.252-27.37-40.814
	c-3.153-0.245-6.186-0.491-9.996,0.162c-11.835,2.026-21.026,11.467-23.564,23.203c-1.411,6.523-2.897,13.427-4.206,19.548
	c0.014-0.066,0.028-0.13,0.042-0.196c4.76-22.265-14.789-42.196-37.125-37.785c-0.283,0.055-0.564,0.111-0.844,0.167
	c-13.522,2.687-23.739,13.812-25.301,27.508c-1.054,9.24-2.24,19.698-3.175,28.112c0.015-0.138,0.029-0.263,0.044-0.401
	c2.581-23.194-21.509-39.984-42.439-29.664c-0.263,0.131-0.526,0.26-0.787,0.391c-8.805,4.375-14.788,12.855-16.123,22.597
	c-1.821,13.283-2.762,26.895-2.767,40.755c0-0.345,0.001-0.691,0.002-1.035c0.125-33.615-44.5-44.915-60.315-15.252
	c-21.365,40.076-33.654,87.022-33.654,137.21c0,147.138,105.621,266.416,235.91,266.416c44.805,0,86.69-14.109,122.364-38.606
	c39.929-27.418,69.6-67.306,86.299-112.773c13.276-36.145,32.075-95.073,39.453-155.73C509.15,76.788,450.822,88.719,421.658,152.35
	z"/>
<linearGradient id="SVGID_7_" gradientUnits="userSpaceOnUse" x1="143.0857" y1="384.3473" x2="42.3957" y2="502.8073" gradientTransform="matrix(1.0039 0 0 -1.0039 0.1922 516.5618)">
	<stop  offset="0" style="stop-color:#FF931E;stop-opacity:0"/>
	<stop  offset="1" style="stop-color:#D54003"/>
</linearGradient>
<path style="fill:url(#SVGID_7_);" d="M408.284,350.86c-20.725,6.705-42.59,10.309-65.224,10.309
	c-130.288,0-235.901-119.263-235.901-266.407c0-13.897,0.943-27.545,2.768-40.863c1.335-9.742,7.318-18.222,16.123-22.597
	c0.261-0.13,0.524-0.26,0.787-0.39c20.93-10.321,45.02,6.47,42.439,29.663c-0.995,8.944-1.719,15.66-1.719,16.298
	c0,139.75,95.304,254.375,216.529,265.505C391.959,345.692,400.041,348.527,408.284,350.86z"/>
<linearGradient id="SVGID_8_" gradientUnits="userSpaceOnUse" x1="253.6482" y1="340.5333" x2="150.8382" y2="337.3533" gradientTransform="matrix(1.0039 0 0 -1.0039 0.1922 516.5618)">
	<stop  offset="0" style="stop-color:#FF931E;stop-opacity:0"/>
	<stop  offset="1" style="stop-color:#D54003"/>
</linearGradient>
<path style="fill:url(#SVGID_8_);" d="M384.087,342.379c-121.224-11.13-216.529-125.755-216.529-265.505
	c0-1.231,2.701-25.173,4.849-44.009c1.562-13.697,11.78-24.821,25.301-27.508c0.28-0.055,0.561-0.111,0.844-0.168
	c22.336-4.41,41.885,15.521,37.125,37.786c-2.149,10.052-3.821,18.013-3.877,18.686c-0.212,1.828-0.37,3.684-0.53,5.513
	c-0.186,2.094-0.344,4.187-0.451,6.282c-0.133,2.041-0.239,4.081-0.345,6.148c0,0.265-0.026,0.531-0.026,0.795
	c-0.079,1.908-0.133,3.816-0.159,5.75c-0.053,2.12-0.079,4.241-0.079,6.388C230.212,207.082,294.242,304.745,384.087,342.379z"/>
<linearGradient id="SVGID_9_" gradientUnits="userSpaceOnUse" x1="284.0563" y1="377.8211" x2="146.2663" y2="496.2811" gradientTransform="matrix(1.0039 0 0 -1.0039 0.1922 516.5618)">
	<stop  offset="0" style="stop-color:#FF931E;stop-opacity:0"/>
	<stop  offset="1" style="stop-color:#D54003"/>
</linearGradient>
<path style="fill:url(#SVGID_9_);" d="M401.764,343.253c-5.963-0.053-11.846-0.344-17.677-0.874
	c-89.845-37.633-153.875-135.297-153.875-249.842c0-2.147,0.026-4.268,0.079-6.388c0.026-1.935,0.079-3.843,0.159-5.75
	c0-0.265,0.026-0.53,0.026-0.795c0.106-2.067,0.212-4.107,0.345-6.148c0.106-2.094,0.265-4.187,0.451-6.282
	c0.16-1.828,0.318-3.684,0.53-5.513c0.088-1.053,4.14-19.991,7.78-36.834C242.887,9.537,256.958-1,272.557,0.192
	c0.281,0.021,0.563,0.043,0.846,0.065c20.144,1.563,33.525,21.572,27.37,40.815c-1.146,3.583-1.935,6.093-2.051,6.569
	c-0.026,0.106-0.053,0.212-0.079,0.345c-0.583,2.385-1.113,4.797-1.616,7.209c-0.477,2.253-0.928,4.532-1.351,6.838
	c-0.556,2.941-1.06,5.91-1.511,8.878c-0.344,2.2-0.663,4.426-0.954,6.652c-0.053,0.239-0.079,0.451-0.106,0.689
	c-0.318,2.439-0.609,4.903-0.848,7.368c-0.026,0.16-0.026,0.292-0.053,0.451c-0.212,2.12-0.424,4.268-0.583,6.414
	c-0.053,0.636-0.106,1.272-0.133,1.935c-0.186,2.28-0.344,4.532-0.451,6.838c-0.133,2.253-0.212,4.533-0.265,6.812
	c-0.053,0.822-0.079,1.617-0.079,2.439c-0.053,2.2-0.079,4.399-0.079,6.626C290.612,212.542,335.03,296.184,401.764,343.253z"/>
<linearGradient id="SVGID_10_" gradientUnits="userSpaceOnUse" x1="434.8761" y1="267.7019" x2="351.886" y2="384.2819" gradientTransform="matrix(1.0039 0 0 -1.0039 0.1922 516.5618)">
	<stop  offset="0" style="stop-color:#FF931E;stop-opacity:0"/>
	<stop  offset="1" style="stop-color:#D54003"/>
</linearGradient>
<path style="fill:url(#SVGID_10_);" d="M386.218,358.684c29.099,12.098,62.458-2.845,73.157-32.487
	c13.144-36.416,30.76-93.067,37.844-151.311c11.931-98.097-46.397-86.167-75.561-22.536
	c-18.359,40.055-45.647,80.636-71.616,110.499c-22.808,26.228-16.349,66.612,13.534,84.365
	C370.736,351.467,378.336,355.406,386.218,358.684z"/>
<linearGradient id="SVGID_11_" gradientUnits="userSpaceOnUse" x1="424.3925" y1="91.4677" x2="311.6625" y2="204.1877" gradientTransform="matrix(1.0039 0 0 -1.0039 0.1922 516.5618)">
	<stop  offset="0" style="stop-color:#FF931E;stop-opacity:0"/>
	<stop  offset="1" style="stop-color:#D54003"/>
</linearGradient>
<path style="fill:url(#SVGID_11_);" d="M394.72,201.978c-0.234,0.375-0.464,0.755-0.7,1.129c-0.37,0.59-0.739,1.184-1.111,1.772
	c-1.234,1.95-2.48,3.886-3.736,5.811c-0.44,0.674-0.882,1.343-1.325,2.014c-0.963,1.462-1.932,2.913-2.905,4.359
	c-0.435,0.646-0.867,1.295-1.304,1.938c-1.224,1.798-2.456,3.58-3.693,5.35c-0.554,0.792-1.109,1.578-1.667,2.364
	c-0.392,0.553-0.785,1.097-1.178,1.647c-18.384,25.356-57.809,19.868-68.685-9.556c-0.033-0.091-0.07-0.181-0.103-0.272
	c-0.222-0.607-0.43-1.223-0.648-1.833c-0.62-1.735-1.228-3.478-1.816-5.23c-0.292-0.871-0.577-1.746-0.861-2.621
	c-0.521-1.603-1.027-3.215-1.522-4.832c-0.247-0.809-0.499-1.615-0.74-2.428c-0.692-2.337-1.361-4.686-1.997-7.052
	c-0.13-0.484-0.248-0.973-0.375-1.457c-0.518-1.968-1.017-3.944-1.495-5.931c-0.203-0.843-0.399-1.69-0.594-2.537
	c-0.403-1.741-0.789-3.489-1.162-5.243c-0.168-0.793-0.34-1.583-0.502-2.378c-0.502-2.469-0.982-4.946-1.423-7.441
	c-0.058-0.331-0.108-0.667-0.166-0.999c-0.383-2.213-0.741-4.436-1.075-6.668c-0.122-0.817-0.237-1.637-0.352-2.458
	c-0.262-1.857-0.507-3.721-0.736-5.591c-0.096-0.786-0.196-1.569-0.286-2.357c-0.294-2.58-0.565-5.169-0.794-7.772
	c-0.014-0.166-0.024-0.332-0.038-0.498c-0.212-2.457-0.388-4.924-0.539-7.4c-0.049-0.802-0.089-1.608-0.133-2.412
	c-0.103-1.943-0.189-3.891-0.255-5.846c-0.027-0.796-0.057-1.591-0.078-2.389c-0.07-2.667-0.116-5.341-0.116-8.027
	c0-2.227,0.026-4.426,0.079-6.626c0-0.821,0.026-1.617,0.079-2.439c0.053-2.279,0.133-4.559,0.265-6.812
	c0.031-0.682,0.075-1.352,0.115-2.027c-11.248-2.894-23.022-4.441-35.151-4.441c-79.166,0-143.343,65.461-143.343,146.209
	c0,42.095,17.448,80.03,45.362,106.707l130.565,130.565c29.916-5.694,57.921-17.74,82.884-34.881
	c39.929-27.418,69.6-67.306,86.299-112.773c0.52-1.415,1.05-2.876,1.586-4.36c0.007-0.02,0.016-0.039,0.023-0.058
	c0.166-0.459,0.334-0.935,0.502-1.399c0.195-0.542,0.387-1.079,0.584-1.63c0.232-0.65,0.466-1.312,0.7-1.973
	c0.199-0.561,0.396-1.116,0.596-1.686c0.237-0.674,0.476-1.361,0.715-2.047c0.201-0.574,0.4-1.143,0.601-1.726
	c0.243-0.702,0.488-1.418,0.733-2.129c0.201-0.585,0.401-1.164,0.603-1.757c0.251-0.736,0.504-1.488,0.757-2.236
	c0.198-0.586,0.396-1.166,0.594-1.76c0.277-0.827,0.556-1.671,0.835-2.51c0.176-0.529,0.35-1.049,0.526-1.584
	c0.454-1.375,0.909-2.766,1.364-4.173c0.097-0.302,0.196-0.612,0.294-0.916c0.361-1.119,0.724-2.243,1.086-3.382
	c0.175-0.551,0.35-1.113,0.526-1.669c0.285-0.905,0.571-1.806,0.857-2.722c0.197-0.631,0.395-1.275,0.591-1.911
	c0.264-0.854,0.529-1.706,0.793-2.57c0.208-0.681,0.417-1.372,0.624-2.059c0.253-0.833,0.505-1.663,0.757-2.504
	c0.044-0.149,0.088-0.299,0.134-0.449L394.72,201.978z"/>
<g>
	<path style="fill:#FFE7A5;" d="M138.339,200.126c-1.156,0-2.254-0.683-2.727-1.816c-1.311-3.138-2.573-6.377-3.749-9.622
		c-0.555-1.534,0.237-3.228,1.771-3.784c1.533-0.553,3.228,0.239,3.784,1.771c1.143,3.157,2.369,6.304,3.644,9.356
		c0.628,1.506-0.081,3.236-1.586,3.864C139.104,200.053,138.718,200.126,138.339,200.126z M130.24,177.161
		c-1.279,0-2.458-0.837-2.834-2.126c-1.32-4.52-2.536-9.192-3.613-13.888c-0.365-1.591,0.628-3.175,2.219-3.54
		c1.586-0.364,3.174,0.627,3.54,2.218c1.052,4.586,2.239,9.145,3.527,13.554c0.458,1.566-0.442,3.207-2.007,3.663
		C130.794,177.121,130.514,177.161,130.24,177.161z M123.88,149.537c-1.411,0-2.659-1.013-2.907-2.451
		c-0.801-4.635-1.498-9.407-2.074-14.179c-0.196-1.62,0.96-3.091,2.579-3.288c1.628-0.186,3.092,0.961,3.286,2.579
		c0.563,4.674,1.247,9.346,2.03,13.881c0.278,1.608-0.8,3.136-2.408,3.414C124.216,149.523,124.046,149.537,123.88,149.537z
		 M120.471,121.392c-1.535,0-2.83-1.187-2.943-2.741c-0.34-4.695-0.578-9.504-0.707-14.297c-0.044-1.631,1.243-2.989,2.873-3.033
		c1.652-0.079,2.989,1.242,3.033,2.873c0.126,4.703,0.36,9.423,0.694,14.029c0.117,1.627-1.105,3.042-2.733,3.159
		C120.615,121.39,120.542,121.392,120.471,121.392z M119.706,93.047c-0.017,0-0.034,0-0.051,0c-1.631-0.028-2.93-1.373-2.903-3.005
		c0.08-4.759,0.268-9.569,0.555-14.3c0.099-1.628,1.508-2.855,3.128-2.768c1.628,0.099,2.868,1.499,2.77,3.128
		c-0.283,4.643-0.467,9.369-0.546,14.042C122.632,91.757,121.314,93.047,119.706,93.047z M121.446,64.743
		c-0.106,0-0.213-0.006-0.321-0.017c-1.621-0.176-2.795-1.631-2.619-3.254c0.963-8.907,1.946-14.075,1.987-14.291
		c0.306-1.604,1.855-2.652,3.457-2.345c1.602,0.307,2.652,1.854,2.346,3.458c-0.01,0.051-0.982,5.174-1.916,13.813
		C124.216,63.621,122.936,64.743,121.446,64.743z"/>
	<path style="fill:#FFE7A5;" d="M185.227,128.485c-1.447,0-2.711-1.063-2.921-2.536c-0.662-4.63-1.242-9.406-1.725-14.191
		c-0.164-1.622,1.019-3.072,2.642-3.236c1.619-0.178,3.072,1.018,3.236,2.642c0.476,4.705,1.046,9.399,1.697,13.949
		c0.23,1.615-0.891,3.111-2.507,3.342C185.506,128.476,185.365,128.485,185.227,128.485z M182.362,100.282
		c-1.547,0-2.847-1.204-2.946-2.768c-0.295-4.685-0.511-9.485-0.643-14.27c-0.045-1.63,1.241-2.989,2.871-3.034
		c1.638-0.043,2.99,1.241,3.034,2.872c0.13,4.714,0.342,9.446,0.633,14.06c0.102,1.628-1.134,3.031-2.763,3.134
		C182.486,100.28,182.424,100.282,182.362,100.282z M181.578,71.937c-0.006,0-0.013,0-0.019,0c-1.631-0.01-2.946-1.341-2.935-2.973
		c0.03-4.75,0.14-9.553,0.327-14.276c0.064-1.631,1.444-2.887,3.069-2.835c1.63,0.064,2.899,1.439,2.834,3.068
		c-0.185,4.658-0.293,9.395-0.322,14.08C184.521,70.627,183.2,71.937,181.578,71.937z M182.714,43.601
		c-0.074,0-0.149-0.002-0.225-0.008c-1.627-0.122-2.847-1.54-2.725-3.167c0.67-8.899,1.377-14.086,1.407-14.301
		c0.223-1.616,1.718-2.735,3.329-2.524c1.616,0.223,2.746,1.713,2.524,3.329c-0.007,0.052-0.714,5.242-1.368,13.939
		C185.54,42.42,184.245,43.601,182.714,43.601z"/>
	<path style="fill:#FFE7A5;" d="M243.375,113.902c-1.626,0-2.948-1.315-2.954-2.942l-0.002-0.941
		c0.001-2.462,0.026-4.902,0.076-7.317c0.033-1.611,1.349-2.894,2.953-2.894c0.02,0,0.041,0,0.061,0.001
		c1.631,0.032,2.926,1.382,2.893,3.013c-0.048,2.376-0.074,4.777-0.075,7.198l0.002,0.917c0.006,1.631-1.311,2.96-2.943,2.966
		C243.383,113.902,243.379,113.902,243.375,113.902z M244.016,91.544c-0.058,0-0.117-0.001-0.176-0.005
		c-1.628-0.095-2.871-1.493-2.776-3.122c0.275-4.689,0.642-9.483,1.09-14.247c0.153-1.624,1.592-2.804,3.218-2.664
		c1.624,0.154,2.817,1.593,2.663,3.219c-0.442,4.695-0.802,9.419-1.074,14.04C246.87,90.332,245.568,91.544,244.016,91.544z
		 M246.667,63.301c-0.125,0-0.252-0.008-0.379-0.024c-1.617-0.208-2.761-1.689-2.554-3.306c0.604-4.71,1.295-9.467,2.054-14.136
		c0.262-1.611,1.781-2.693,3.389-2.443c1.61,0.262,2.704,1.779,2.443,3.389c-0.748,4.606-1.43,9.297-2.026,13.942
		C249.402,62.214,248.131,63.301,246.667,63.301z M251.225,35.297c-0.191,0-0.385-0.018-0.58-0.056
		c-1.6-0.318-2.639-1.874-2.32-3.475c1.744-8.76,3.076-13.828,3.132-14.04c0.417-1.577,2.032-2.52,3.61-2.101
		c1.577,0.417,2.518,2.033,2.102,3.61c-0.013,0.049-1.345,5.122-3.05,13.684C253.839,34.326,252.605,35.297,251.225,35.297z"/>
</g>
<linearGradient id="SVGID_12_" gradientUnits="userSpaceOnUse" x1="141.7954" y1="367.4107" x2="103.7454" y2="405.4507" gradientTransform="matrix(1.0039 0 0 -1.0039 0.1922 516.5618)">
	<stop  offset="0" style="stop-color:#FF931E;stop-opacity:0"/>
	<stop  offset="1" style="stop-color:#D54003"/>
</linearGradient>
<path style="fill:url(#SVGID_12_);" d="M99.393,114.354l-7.647,8.71c-2.101,2.393-1.864,6.037,0.528,8.138l50.628,50.628l0,0
	c2.393,2.101,6.038,1.864,8.139-0.529l8.173-9.309l9.309,8.173c2.393,2.101,6.038,1.864,8.138-0.529
	c2.101-2.393,1.864-6.038-0.529-8.139l-8.783-8.772l7.646-8.71c2.101-2.393,1.864-6.038-0.529-8.139l0,0
	c-0.064-0.056-0.138-0.092-0.203-0.146l-50.424-50.482l0,0c-2.393-2.101-6.037-1.864-8.138,0.53l-8.173,9.309l-9.309-8.173
	c-2.393-2.101-6.038-1.864-8.139,0.529c-2.101,2.393-1.864,6.037,0.529,8.138L99.393,114.354z"/>
<linearGradient id="SVGID_13_" gradientUnits="userSpaceOnUse" x1="121.6928" y1="530.694" x2="109.7228" y2="422.384" gradientTransform="matrix(1.0039 0 0 -1.0039 0.1922 516.5618)">
	<stop  offset="0" style="stop-color:#FF931E"/>
	<stop  offset="0.252" style="stop-color:#FF8E1B"/>
	<stop  offset="0.56" style="stop-color:#FF7F13"/>
	<stop  offset="0.895" style="stop-color:#FF6605"/>
	<stop  offset="1" style="stop-color:#FF5D00"/>
</linearGradient>
<path style="fill:url(#SVGID_13_);" d="M125.505,120.87l-9.309-8.173l8.173-9.309c2.101-2.393,1.864-6.038-0.529-8.139l0,0
	c-2.393-2.101-6.037-1.864-8.138,0.53l-8.173,9.309l-9.309-8.173c-2.393-2.101-6.038-1.864-8.139,0.529
	c-2.101,2.393-1.864,6.037,0.529,8.138l9.309,8.173l-8.173,9.309c-2.101,2.393-1.864,6.037,0.528,8.138l0,0
	c2.393,2.101,6.038,1.864,8.139-0.529l8.173-9.309l9.309,8.173c2.393,2.101,6.037,1.864,8.138-0.529
	C128.135,126.614,127.898,122.971,125.505,120.87z"/>
<linearGradient id="SVGID_14_" gradientUnits="userSpaceOnUse" x1="202.7584" y1="407.1337" x2="164.7084" y2="445.1736" gradientTransform="matrix(1.0039 0 0 -1.0039 0.1922 516.5618)">
	<stop  offset="0" style="stop-color:#FF931E;stop-opacity:0"/>
	<stop  offset="1" style="stop-color:#D54003"/>
</linearGradient>
<path style="fill:url(#SVGID_14_);" d="M160.593,74.473l-7.647,8.71c-2.101,2.393-1.864,6.037,0.528,8.138l50.628,50.628l0,0
	c2.393,2.101,6.038,1.864,8.139-0.529l8.173-9.309l9.309,8.173c2.393,2.101,6.038,1.864,8.138-0.529
	c2.101-2.393,1.864-6.038-0.529-8.139l-8.783-8.772l7.646-8.71c2.101-2.393,1.864-6.038-0.529-8.139l0,0
	c-0.064-0.056-0.138-0.092-0.203-0.146l-50.424-50.482l0,0c-2.393-2.101-6.037-1.864-8.138,0.53l-8.173,9.309l-9.309-8.173
	c-2.393-2.101-6.038-1.864-8.139,0.529s-1.864,6.037,0.529,8.138L160.593,74.473z"/>
<linearGradient id="SVGID_15_" gradientUnits="userSpaceOnUse" x1="182.6662" y1="570.4196" x2="170.6862" y2="462.1125" gradientTransform="matrix(1.0039 0 0 -1.0039 0.1922 516.5618)">
	<stop  offset="0" style="stop-color:#FF931E"/>
	<stop  offset="0.252" style="stop-color:#FF8E1B"/>
	<stop  offset="0.56" style="stop-color:#FF7F13"/>
	<stop  offset="0.895" style="stop-color:#FF6605"/>
	<stop  offset="1" style="stop-color:#FF5D00"/>
</linearGradient>
<path style="fill:url(#SVGID_15_);" d="M186.705,80.989l-9.309-8.173l8.173-9.309c2.101-2.393,1.864-6.038-0.529-8.139l0,0
	c-2.393-2.101-6.037-1.864-8.138,0.53l-8.173,9.309l-9.309-8.173c-2.393-2.101-6.038-1.864-8.139,0.529
	c-2.101,2.393-1.864,6.037,0.529,8.138l9.309,8.173l-8.173,9.309c-2.101,2.393-1.864,6.037,0.528,8.138l0,0
	c2.393,2.101,6.038,1.864,8.139-0.529l8.173-9.309l9.309,8.173c2.393,2.101,6.037,1.864,8.138-0.529
	C189.335,86.734,189.098,83.09,186.705,80.989z"/>
<linearGradient id="SVGID_16_" gradientUnits="userSpaceOnUse" x1="268.0159" y1="424.2612" x2="229.9659" y2="462.3011" gradientTransform="matrix(1.0039 0 0 -1.0039 0.1922 516.5618)">
	<stop  offset="0" style="stop-color:#FF931E;stop-opacity:0"/>
	<stop  offset="1" style="stop-color:#D54003"/>
</linearGradient>
<path style="fill:url(#SVGID_16_);" d="M226.108,57.28l-7.647,8.71c-2.101,2.393-1.864,6.037,0.528,8.138l50.628,50.628l0,0
	c2.393,2.101,6.038,1.864,8.139-0.529l8.173-9.309l9.309,8.173c2.393,2.101,6.038,1.864,8.138-0.529
	c2.101-2.393,1.864-6.038-0.529-8.139l-8.783-8.772l7.646-8.71c2.101-2.393,1.864-6.038-0.529-8.139l0,0
	c-0.064-0.056-0.138-0.092-0.203-0.146l-50.424-50.482l0,0c-2.393-2.101-6.037-1.864-8.138,0.53l-8.173,9.309l-9.309-8.173
	c-2.393-2.101-6.038-1.864-8.139,0.529c-2.101,2.393-1.864,6.037,0.529,8.138L226.108,57.28z"/>
<linearGradient id="SVGID_17_" gradientUnits="userSpaceOnUse" x1="247.9137" y1="587.5529" x2="235.9437" y2="479.2428" gradientTransform="matrix(1.0039 0 0 -1.0039 0.1922 516.5618)">
	<stop  offset="0" style="stop-color:#FF931E"/>
	<stop  offset="0.252" style="stop-color:#FF8E1B"/>
	<stop  offset="0.56" style="stop-color:#FF7F13"/>
	<stop  offset="0.895" style="stop-color:#FF6605"/>
	<stop  offset="1" style="stop-color:#FF5D00"/>
</linearGradient>
<path style="fill:url(#SVGID_17_);" d="M252.22,63.796l-9.309-8.173l8.173-9.309c2.101-2.393,1.864-6.038-0.529-8.139l0,0
	c-2.393-2.101-6.037-1.864-8.138,0.53l-8.173,9.309l-9.309-8.173c-2.393-2.101-6.038-1.864-8.139,0.529
	c-2.101,2.393-1.864,6.037,0.529,8.138l9.309,8.173l-8.173,9.309c-2.101,2.393-1.864,6.037,0.528,8.138l0,0
	c2.393,2.101,6.038,1.864,8.139-0.529l8.173-9.309l9.309,8.173c2.393,2.101,6.038,1.864,8.138-0.529
	C254.85,69.54,254.613,65.896,252.22,63.796z"/>
<radialGradient id="SVGID_18_" cx="189.4382" cy="361.6734" r="268.08" gradientTransform="matrix(1.0039 0 0 -1.0039 0.1922 516.5618)" gradientUnits="userSpaceOnUse">
	<stop  offset="0" style="stop-color:#E2EDF2"/>
	<stop  offset="0.353" style="stop-color:#E0ECF1"/>
	<stop  offset="0.561" style="stop-color:#D7E7EF"/>
	<stop  offset="0.732" style="stop-color:#C9DFEC"/>
	<stop  offset="0.881" style="stop-color:#B5D4E7"/>
	<stop  offset="1" style="stop-color:#9FC7E2"/>
</radialGradient>
<ellipse style="fill:url(#SVGID_18_);" cx="256" cy="241.002" rx="143.34" ry="146.211"/>
<linearGradient id="SVGID_19_" gradientUnits="userSpaceOnUse" x1="121.6432" y1="234.8089" x2="307.3832" y2="234.8089" gradientTransform="matrix(1.0039 0 0 -1.0039 0.1922 516.5618)">
	<stop  offset="0" style="stop-color:#654E48"/>
	<stop  offset="0.445" style="stop-color:#5F4843"/>
	<stop  offset="1" style="stop-color:#503837"/>
</linearGradient>
<path style="fill:url(#SVGID_19_);" d="M259.204,231.273c-31.96-31.967-74.463-49.571-119.67-49.571
	c-4.993,0-9.96,0.215-14.877,0.645c-0.818,1.907-1.602,3.842-2.344,5.792c5.68-0.589,11.431-0.887,17.221-0.887
	c43.723,0,84.831,17.028,115.751,47.947s47.947,72.028,47.947,115.751c0,9.835-0.86,19.531-2.552,29.012
	c2.019-0.68,4.016-1.393,5.992-2.156c1.394-8.801,2.108-17.769,2.108-26.856C308.781,305.743,291.171,263.241,259.204,231.273z"/>
<linearGradient id="SVGID_20_" gradientUnits="userSpaceOnUse" x1="246.5592" y1="356.0379" x2="396.5682" y2="356.0379" gradientTransform="matrix(1.0039 0 0 -1.0039 0.1922 516.5618)">
	<stop  offset="0" style="stop-color:#654E48"/>
	<stop  offset="0.445" style="stop-color:#5F4843"/>
	<stop  offset="1" style="stop-color:#503837"/>
</linearGradient>
<path style="fill:url(#SVGID_20_);" d="M397.546,217.804c-38.202-3.357-73.686-19.851-101.131-47.295
	c-21.237-21.238-35.927-47.289-43.03-75.691c-1.9,0.028-3.787,0.104-5.666,0.215c7.241,29.803,22.534,57.151,44.778,79.394
	c28.673,28.68,65.835,45.797,105.819,49.008C398.101,221.549,397.837,219.67,397.546,217.804z"/>
<linearGradient id="SVGID_21_" gradientUnits="userSpaceOnUse" x1="143.1078" y1="350.033" x2="141.378" y2="310.5363" gradientTransform="matrix(1.0039 0 0 -1.0039 0.1922 516.5618)">
	<stop  offset="0" style="stop-color:#FF7BAC"/>
	<stop  offset="1" style="stop-color:#E24786"/>
</linearGradient>
<path style="fill:url(#SVGID_21_);" d="M134.282,204.534c-1.033,0-2.061-0.417-2.814-1.238c-1.423-1.553-1.317-3.966,0.236-5.389
	l13.904-12.737l-12.738-13.904c-1.424-1.553-1.317-3.966,0.236-5.389c1.553-1.423,3.966-1.318,5.39,0.236l15.314,16.717
	c1.423,1.553,1.317,3.966-0.236,5.389l-16.717,15.314C136.125,204.203,135.202,204.534,134.282,204.534z"/>
<linearGradient id="SVGID_22_" gradientUnits="userSpaceOnUse" x1="172.7869" y1="346.6191" x2="166.0569" y2="307.6587" gradientTransform="matrix(1.0039 0 0 -1.0039 0.1922 516.5618)">
	<stop  offset="0" style="stop-color:#FF7BAC"/>
	<stop  offset="1" style="stop-color:#E24786"/>
</linearGradient>
<path style="fill:url(#SVGID_22_);" d="M159.654,206.388c-1.199,0.001-2.377-0.562-3.121-1.616
	c-1.214-1.722-0.803-4.102,0.919-5.317l15.41-10.867l-10.867-15.41c-1.214-1.722-0.803-4.102,0.919-5.317
	c1.723-1.213,4.102-0.802,5.316,0.92l13.066,18.527c1.214,1.722,0.803,4.102-0.919,5.317l-18.527,13.066
	C161.181,206.162,160.414,206.388,159.654,206.388z"/>
<linearGradient id="SVGID_23_" gradientUnits="userSpaceOnUse" x1="199.3434" y1="339.7509" x2="188.1838" y2="301.8221" gradientTransform="matrix(1.0039 0 0 -1.0039 0.1922 516.5618)">
	<stop  offset="0" style="stop-color:#FF7BAC"/>
	<stop  offset="1" style="stop-color:#E24786"/>
</linearGradient>
<path style="fill:url(#SVGID_23_);" d="M182.505,211.449c-1.351,0-2.66-0.72-3.353-1.99c-1.008-1.85-0.326-4.167,1.523-5.175
	l16.556-9.026l-9.027-16.556c-1.009-1.85-0.326-4.167,1.523-5.175c1.849-1.01,4.166-0.327,5.175,1.523l10.853,19.905
	c0.484,0.888,0.595,1.933,0.31,2.903c-0.286,0.971-0.946,1.788-1.833,2.273l-19.905,10.852
	C183.747,211.3,183.122,211.449,182.505,211.449z"/>
<linearGradient id="SVGID_24_" gradientUnits="userSpaceOnUse" x1="226.1014" y1="328.2291" x2="209.3058" y2="292.4385" gradientTransform="matrix(1.0039 0 0 -1.0039 0.1922 516.5618)">
	<stop  offset="0" style="stop-color:#FF7BAC"/>
	<stop  offset="1" style="stop-color:#E24786"/>
</linearGradient>
<path style="fill:url(#SVGID_24_);" d="M204.683,219.934c-1.562,0-3.027-0.967-3.588-2.52c-0.716-1.981,0.31-4.167,2.292-4.883
	l17.735-6.407l-6.407-17.734c-0.716-1.982,0.31-4.168,2.292-4.884c1.982-0.715,4.168,0.311,4.884,2.291l7.703,21.323
	c0.343,0.952,0.295,2.001-0.135,2.916c-0.43,0.917-1.206,1.624-2.157,1.968l-21.323,7.702
	C205.552,219.86,205.114,219.934,204.683,219.934z"/>
<linearGradient id="SVGID_25_" gradientUnits="userSpaceOnUse" x1="250.537" y1="312.8242" x2="229.79" y2="279.169" gradientTransform="matrix(1.0039 0 0 -1.0039 0.1922 516.5618)">
	<stop  offset="0" style="stop-color:#FF7BAC"/>
	<stop  offset="1" style="stop-color:#E24786"/>
</linearGradient>
<path style="fill:url(#SVGID_25_);" d="M226.079,232.625c-1.728,0-3.293-1.182-3.708-2.935c-0.486-2.05,0.782-4.105,2.831-4.592
	l18.348-4.35l-4.35-18.348c-0.486-2.05,0.782-4.105,2.831-4.592c2.051-0.488,4.106,0.782,4.592,2.832l5.23,22.06
	c0.486,2.05-0.782,4.105-2.831,4.592l-22.06,5.23C226.666,232.592,226.371,232.625,226.079,232.625z"/>
<linearGradient id="SVGID_26_" gradientUnits="userSpaceOnUse" x1="273.7092" y1="293.2268" x2="245.3516" y2="265.6791" gradientTransform="matrix(1.0039 0 0 -1.0039 0.1922 516.5618)">
	<stop  offset="0" style="stop-color:#FF7BAC"/>
	<stop  offset="1" style="stop-color:#E24786"/>
</linearGradient>
<path style="fill:url(#SVGID_26_);" d="M266.327,245.578c-0.019,0-0.038,0-0.057-0.001l-22.669-0.33
	c-2.107-0.03-3.79-1.763-3.759-3.869c0.03-2.087,1.733-3.759,3.813-3.759c0.019,0,0.037,0,0.056,0.001l18.855,0.274l0.275-18.854
	c0.03-2.087,1.732-3.759,3.813-3.759c0.019,0,0.038,0,0.057,0.001c2.106,0.03,3.79,1.763,3.759,3.869l-0.33,22.669
	C270.109,243.905,268.407,245.578,266.327,245.578z"/>
<linearGradient id="SVGID_27_" gradientUnits="userSpaceOnUse" x1="293.8593" y1="268.3534" x2="260.7033" y2="246.816" gradientTransform="matrix(1.0039 0 0 -1.0039 0.1922 516.5618)">
	<stop  offset="0" style="stop-color:#FF7BAC"/>
	<stop  offset="1" style="stop-color:#E24786"/>
</linearGradient>
<path style="fill:url(#SVGID_27_);" d="M282.932,268.504c-0.263,0-0.529-0.027-0.796-0.084l-22.177-4.709
	c-2.061-0.438-3.377-2.463-2.938-4.524c0.438-2.062,2.461-3.38,4.524-2.939l18.446,3.917l3.917-18.446
	c0.438-2.061,2.461-3.377,4.524-2.938c2.061,0.438,3.376,2.463,2.938,4.524l-4.709,22.177
	C286.278,267.276,284.694,268.504,282.932,268.504z"/>
<linearGradient id="SVGID_28_" gradientUnits="userSpaceOnUse" x1="308.3897" y1="242.0241" x2="272.9752" y2="224.4468" gradientTransform="matrix(1.0039 0 0 -1.0039 0.1922 516.5618)">
	<stop  offset="0" style="stop-color:#FF7BAC"/>
	<stop  offset="1" style="stop-color:#E24786"/>
</linearGradient>
<path style="fill:url(#SVGID_28_);" d="M295.577,293.409c-0.404,0-0.814-0.065-1.218-0.201l-21.486-7.234
	c-1.997-0.673-3.07-2.836-2.398-4.833c0.673-1.997,2.837-3.068,4.833-2.398l17.871,6.017l6.017-17.871
	c0.673-1.996,2.838-3.066,4.833-2.398c1.997,0.673,3.07,2.836,2.398,4.833l-7.234,21.486
	C298.655,292.403,297.169,293.409,295.577,293.409z"/>
<linearGradient id="SVGID_29_" gradientUnits="userSpaceOnUse" x1="319.6239" y1="212.1346" x2="281.6797" y2="201.0234" gradientTransform="matrix(1.0039 0 0 -1.0039 0.1922 516.5618)">
	<stop  offset="0" style="stop-color:#FF7BAC"/>
	<stop  offset="1" style="stop-color:#E24786"/>
</linearGradient>
<path style="fill:url(#SVGID_29_);" d="M304.273,320.682c-0.634,0-1.265-0.159-1.831-0.468l-19.889-10.884
	c-1.848-1.011-2.527-3.33-1.515-5.178c1.012-1.848,3.328-2.525,5.178-1.515l16.543,9.052l9.051-16.543
	c1.012-1.848,3.33-2.526,5.177-1.516c1.848,1.011,2.527,3.33,1.516,5.177l-10.883,19.889c-0.486,0.887-1.304,1.546-2.275,1.83
	C304.994,320.632,304.633,320.682,304.273,320.682z"/>
<linearGradient id="SVGID_30_" gradientUnits="userSpaceOnUse" x1="324.6131" y1="184.8602" x2="285.6199" y2="178.3197" gradientTransform="matrix(1.0039 0 0 -1.0039 0.1922 516.5618)">
	<stop  offset="0" style="stop-color:#FF7BAC"/>
	<stop  offset="1" style="stop-color:#E24786"/>
</linearGradient>
<path style="fill:url(#SVGID_30_);" d="M307.827,345.981c-0.766,0-1.54-0.23-2.211-0.709l-18.462-13.159
	c-1.716-1.223-2.115-3.605-0.892-5.321c1.223-1.717,3.605-2.115,5.321-0.892l15.356,10.945l10.945-15.356
	c1.223-1.717,3.605-2.116,5.321-0.892c1.716,1.223,2.115,3.605,0.892,5.321l-13.159,18.462
	C310.192,345.425,309.019,345.981,307.827,345.981z"/>
<linearGradient id="SVGID_31_" gradientUnits="userSpaceOnUse" x1="324.8186" y1="154.9435" x2="285.2894" y2="155.6635" gradientTransform="matrix(1.0039 0 0 -1.0039 0.1922 516.5618)">
	<stop  offset="0" style="stop-color:#FF7BAC"/>
	<stop  offset="1" style="stop-color:#E24786"/>
</linearGradient>
<path style="fill:url(#SVGID_31_);" d="M306.256,372.478c-0.023,0-0.046,0-0.069-0.001c-1.011-0.018-1.975-0.438-2.676-1.166
	l-15.738-16.319c-1.463-1.517-1.419-3.932,0.097-5.394c1.517-1.463,3.932-1.419,5.394,0.097l13.09,13.573l13.572-13.09
	c1.517-1.463,3.931-1.419,5.394,0.097c1.463,1.517,1.419,3.932-0.097,5.394l-16.318,15.738
	C308.193,372.096,307.243,372.478,306.256,372.478z"/>
<linearGradient id="SVGID_32_" gradientUnits="userSpaceOnUse" x1="387.1393" y1="315.7772" x2="379.7783" y2="276.932" gradientTransform="matrix(1.0039 0 0 -1.0039 0.1922 516.5618)">
	<stop  offset="0" style="stop-color:#FF7BAC"/>
	<stop  offset="1" style="stop-color:#E24786"/>
</linearGradient>
<path style="fill:url(#SVGID_32_);" d="M374.299,237.119c-1.219,0-2.417-0.584-3.155-1.667c-1.187-1.742-0.737-4.114,1.004-5.301
	l15.583-10.619l-10.619-15.582c-1.187-1.741-0.737-4.114,1.004-5.301c1.742-1.186,4.114-0.738,5.301,1.004l12.768,18.734
	c0.569,0.836,0.784,1.864,0.596,2.858s-0.764,1.872-1.6,2.443l-18.735,12.768C375.787,236.904,375.039,237.119,374.299,237.119z"/>
<linearGradient id="SVGID_33_" gradientUnits="userSpaceOnUse" x1="365.688" y1="320.4771" x2="356.9292" y2="281.9225" gradientTransform="matrix(1.0039 0 0 -1.0039 0.1922 516.5618)">
	<stop  offset="0" style="stop-color:#FF7BAC"/>
	<stop  offset="1" style="stop-color:#E24786"/>
</linearGradient>
<path style="fill:url(#SVGID_33_);" d="M351.557,231.854c-1.267,0-2.506-0.631-3.231-1.782c-1.123-1.783-0.588-4.138,1.194-5.261
	l15.955-10.051l-10.05-15.955c-1.123-1.783-0.588-4.138,1.194-5.261c1.782-1.123,4.138-0.588,5.261,1.194l12.083,19.183
	c1.123,1.783,0.588,4.138-1.194,5.261l-19.183,12.083C352.956,231.664,352.253,231.854,351.557,231.854z"/>
<linearGradient id="SVGID_34_" gradientUnits="userSpaceOnUse" x1="344.3872" y1="329.5419" x2="327.6277" y2="293.7329" gradientTransform="matrix(1.0039 0 0 -1.0039 0.1922 516.5618)">
	<stop  offset="0" style="stop-color:#FF7BAC"/>
	<stop  offset="1" style="stop-color:#E24786"/>
</linearGradient>
<path style="fill:url(#SVGID_34_);" d="M323.463,218.641c-1.56,0-3.024-0.965-3.586-2.516c-0.718-1.981,0.306-4.168,2.287-4.886
	l17.728-6.426l-6.426-17.728c-0.718-1.981,0.306-4.168,2.287-4.886c1.977-0.719,4.168,0.305,4.886,2.287l7.725,21.314
	c0.718,1.981-0.306,4.168-2.287,4.886l-21.314,7.725C324.335,218.566,323.895,218.641,323.463,218.641z"/>
<linearGradient id="SVGID_35_" gradientUnits="userSpaceOnUse" x1="326.4333" y1="340.6337" x2="302.5815" y2="309.1014" gradientTransform="matrix(1.0039 0 0 -1.0039 0.1922 516.5618)">
	<stop  offset="0" style="stop-color:#FF7BAC"/>
	<stop  offset="1" style="stop-color:#E24786"/>
</linearGradient>
<path style="fill:url(#SVGID_35_);" d="M299.864,202.185c-1.874,0-3.51-1.382-3.774-3.292c-0.289-2.087,1.169-4.013,3.256-4.303
	l18.678-2.589l-2.59-18.679c-0.289-2.087,1.169-4.013,3.255-4.303c2.088-0.286,4.013,1.169,4.303,3.256l3.113,22.457
	c0.289,2.087-1.169,4.013-3.255,4.303l-22.457,3.114C300.214,202.173,300.038,202.185,299.864,202.185z"/>
<linearGradient id="SVGID_36_" gradientUnits="userSpaceOnUse" x1="309.6695" y1="354.5117" x2="282.4307" y2="325.8631" gradientTransform="matrix(1.0039 0 0 -1.0039 0.1922 516.5618)">
	<stop  offset="0" style="stop-color:#FF7BAC"/>
	<stop  offset="1" style="stop-color:#E24786"/>
</linearGradient>
<path style="fill:url(#SVGID_36_);" d="M280.579,184.914c-2.062,0-3.759-1.645-3.811-3.719c-0.053-2.106,1.611-3.857,3.718-3.909
	l18.851-0.474l-0.474-18.85c-0.053-2.106,1.611-3.857,3.718-3.909c2.097-0.045,3.856,1.611,3.909,3.718l0.569,22.664
	c0.053,2.106-1.611,3.857-3.718,3.909l-22.664,0.569C280.644,184.913,280.611,184.914,280.579,184.914z"/>
<linearGradient id="SVGID_37_" gradientUnits="userSpaceOnUse" x1="295.0183" y1="370.6385" x2="263.578" y2="346.6682" gradientTransform="matrix(1.0039 0 0 -1.0039 0.1922 516.5618)">
	<stop  offset="0" style="stop-color:#FF7BAC"/>
	<stop  offset="1" style="stop-color:#E24786"/>
</linearGradient>
<path style="fill:url(#SVGID_37_);" d="M285.453,166.692c-0.17,0-0.341-0.011-0.514-0.034l-22.468-3.027
	c-2.088-0.282-3.553-2.202-3.272-4.29c0.281-2.087,2.199-3.551,4.29-3.272l18.687,2.518l2.518-18.687
	c0.281-2.087,2.196-3.557,4.29-3.272c2.088,0.282,3.553,2.202,3.272,4.29l-3.027,22.468
	C288.97,165.301,287.333,166.692,285.453,166.692z"/>
<linearGradient id="SVGID_38_" gradientUnits="userSpaceOnUse" x1="282.3607" y1="389.3706" x2="249.7174" y2="367.0684" gradientTransform="matrix(1.0039 0 0 -1.0039 0.1922 516.5618)">
	<stop  offset="0" style="stop-color:#FF7BAC"/>
	<stop  offset="1" style="stop-color:#E24786"/>
</linearGradient>
<path style="fill:url(#SVGID_38_);" d="M271.795,147.293c-0.235,0-0.472-0.022-0.706-0.065l-22.28-4.196
	c-2.07-0.391-3.432-2.385-3.043-4.454c0.39-2.07,2.386-3.43,4.454-3.043l18.53,3.491l3.49-18.531
	c0.391-2.07,2.383-3.431,4.454-3.043c2.071,0.391,3.432,2.384,3.043,4.454l-4.195,22.28c-0.188,0.994-0.762,1.873-1.597,2.445
	C273.308,147.064,272.557,147.293,271.795,147.293z"/>
<linearGradient id="SVGID_39_" gradientUnits="userSpaceOnUse" x1="274.1875" y1="408.2661" x2="236.7552" y2="395.5354" gradientTransform="matrix(1.0039 0 0 -1.0039 0.1922 516.5618)">
	<stop  offset="0" style="stop-color:#FF7BAC"/>
	<stop  offset="1" style="stop-color:#E24786"/>
</linearGradient>
<path style="fill:url(#SVGID_39_);" d="M259.301,124.471c-0.579,0-1.157-0.133-1.686-0.393l-20.338-10.016
	c-1.89-0.932-2.668-3.218-1.737-5.108c0.931-1.89,3.219-2.668,5.107-1.738l16.917,8.332l8.331-16.917
	c0.931-1.889,3.22-2.667,5.108-1.738c1.89,0.932,2.668,3.218,1.738,5.108l-10.016,20.339c-0.447,0.908-1.237,1.6-2.195,1.927
	C260.13,124.403,259.715,124.471,259.301,124.471z"/>
<g>
	<path style="fill:#FFE7A5;" d="M162.168,445.673c-0.496,0-0.998-0.124-1.46-0.387c-3.91-2.228-7.794-4.556-11.545-6.918
		c-1.38-0.868-1.795-2.694-0.926-4.073c0.868-1.381,2.693-1.794,4.074-0.926c3.677,2.316,7.486,4.598,11.321,6.784
		c1.418,0.808,1.911,2.611,1.103,4.029C164.192,445.138,163.195,445.673,162.168,445.673z M138.933,430.981
		c-0.586,0-1.178-0.173-1.694-0.535c-3.924-2.751-7.797-5.618-11.512-8.522c-1.285-1.005-1.512-2.861-0.507-4.147
		c1.004-1.285,2.861-1.514,4.146-0.508c3.633,2.842,7.424,5.648,11.264,8.341c1.335,0.936,1.659,2.779,0.723,4.114
		C140.78,430.543,139.863,430.981,138.933,430.981z M116.624,413.522c-0.69,0-1.382-0.24-1.943-0.729
		c-3.604-3.15-7.144-6.427-10.523-9.74c-1.166-1.142-1.184-3.013-0.041-4.177c1.142-1.167,3.012-1.185,4.177-0.041
		c3.3,3.235,6.756,6.434,10.275,9.509c1.229,1.074,1.354,2.94,0.28,4.169C118.266,413.18,117.447,413.522,116.624,413.522z
		 M96.404,393.685c-0.805,0-1.607-0.326-2.191-0.971c-3.212-3.544-6.344-7.217-9.31-10.918c-1.021-1.273-0.815-3.131,0.458-4.153
		c1.272-1.02,3.131-0.816,4.152,0.458c2.891,3.608,5.946,7.19,9.078,10.646c1.095,1.21,1.003,3.076-0.206,4.172
		C97.821,393.432,97.111,393.685,96.404,393.685z M78.694,371.578c-0.928,0-1.841-0.436-2.416-1.252
		c-2.746-3.896-5.403-7.928-7.9-11.987c-0.855-1.389-0.422-3.208,0.968-4.063c1.388-0.859,3.21-0.422,4.064,0.968
		c2.433,3.953,5.022,7.882,7.696,11.678c0.94,1.334,0.62,3.176-0.713,4.117C79.877,371.402,79.282,371.578,78.694,371.578z
		 M63.849,347.451c-1.056,0-2.078-0.567-2.609-1.565c-2.233-4.191-4.371-8.521-6.355-12.87c-0.678-1.485-0.023-3.237,1.462-3.914
		c1.486-0.674,3.238-0.022,3.913,1.462c1.934,4.24,4.019,8.459,6.194,12.544c0.767,1.44,0.222,3.23-1.218,3.996
		C64.793,347.34,64.318,347.451,63.849,347.451z M52.084,321.676c-1.187,0-2.305-0.72-2.757-1.893
		c-1.702-4.416-3.303-8.97-4.759-13.536c-0.496-1.554,0.362-3.216,1.916-3.712c1.554-0.493,3.216,0.362,3.713,1.916
		c1.421,4.455,2.984,8.9,4.643,13.209c0.586,1.522-0.173,3.232-1.695,3.818C52.796,321.612,52.437,321.676,52.084,321.676z
		 M43.462,294.681c-1.315,0-2.516-0.886-2.858-2.219c-1.178-4.573-2.25-9.277-3.188-13.98c-0.319-1.6,0.719-3.156,2.319-3.476
		c1.601-0.312,3.155,0.72,3.475,2.319c0.918,4.597,1.966,9.194,3.115,13.663c0.407,1.58-0.544,3.19-2.124,3.597
		C43.953,294.649,43.706,294.681,43.462,294.681z M37.905,266.885c-1.444,0-2.707-1.059-2.92-2.531
		c-0.679-4.679-1.25-9.465-1.698-14.226c-0.153-1.624,1.041-3.065,2.665-3.219c1.627-0.137,3.065,1.041,3.218,2.664
		c0.438,4.663,0.997,9.35,1.661,13.932c0.234,1.614-0.885,3.113-2.5,3.346C38.189,266.876,38.045,266.885,37.905,266.885z
		 M35.243,238.662c-1.57,0-2.876-1.236-2.949-2.82c-0.208-4.604-0.314-9.302-0.314-13.968v-0.341c0-1.631,1.322-2.954,2.954-2.954
		c1.631,0,2.954,1.322,2.954,2.954v0.341c0,4.576,0.103,9.186,0.308,13.701c0.074,1.63-1.188,3.011-2.818,3.084
		C35.334,238.661,35.288,238.662,35.243,238.662z M35.27,210.309c-0.045,0-0.091-0.001-0.138-0.003
		c-1.629-0.074-2.89-1.457-2.816-3.085c0.217-4.719,0.541-9.522,0.965-14.274c0.145-1.624,1.571-2.824,3.205-2.68
		c1.624,0.146,2.825,1.58,2.679,3.205c-0.416,4.668-0.735,9.385-0.948,14.02C38.147,209.075,36.84,210.309,35.27,210.309z
		 M37.785,182.069c-0.129,0-0.258-0.008-0.39-0.025c-1.617-0.214-2.756-1.698-2.543-3.314c0.619-4.702,1.346-9.46,2.16-14.138
		c0.28-1.606,1.809-2.685,3.416-2.403c1.607,0.279,2.683,1.809,2.403,3.416c-0.8,4.599-1.515,9.275-2.123,13.896
		C40.515,180.987,39.246,182.069,37.785,182.069z M42.644,154.136c-0.207,0-0.418-0.022-0.628-0.068
		c-1.594-0.345-2.607-1.917-2.262-3.513c1.009-4.657,2.125-9.338,3.319-13.913c0.412-1.577,2.027-2.531,3.604-2.113
		c1.578,0.411,2.525,2.025,2.113,3.604c-1.172,4.496-2.269,9.097-3.261,13.673C45.228,153.19,44.004,154.136,42.644,154.136z
		 M49.802,126.698c-0.288,0-0.58-0.043-0.868-0.132c-1.559-0.479-2.436-2.132-1.956-3.691c1.419-4.613,2.938-9.185,4.52-13.586
		c0.551-1.536,2.243-2.335,3.779-1.782c1.535,0.551,2.332,2.243,1.782,3.778c-1.55,4.316-3.042,8.799-4.433,13.325
		C52.234,125.881,51.065,126.698,49.802,126.698z M59.411,100.024c-0.381,0-0.769-0.075-1.142-0.232
		c-1.504-0.631-2.212-2.363-1.58-3.867c1.933-4.602,3.944-9,5.981-13.074c0.731-1.46,2.504-2.052,3.963-1.321
		c1.459,0.731,2.05,2.504,1.32,3.963c-1.979,3.957-3.936,8.236-5.818,12.719C61.66,99.343,60.564,100.024,59.411,100.024z"/>
	<path style="fill:#FFE7A5;" d="M414.92,381.783c-0.597,0-1.202-0.181-1.724-0.556c-1.323-0.953-1.624-2.799-0.672-4.124
		c2.648-3.678,5.262-7.588,7.769-11.62c0.863-1.384,2.685-1.808,4.069-0.949c1.384,0.86,1.81,2.682,0.949,4.069
		c-2.577,4.145-5.266,8.166-7.991,11.953C416.743,381.357,415.838,381.783,414.92,381.783z M429.919,357.731
		c-0.476,0-0.958-0.114-1.405-0.356c-1.435-0.778-1.967-2.571-1.19-4.006c2.174-4.009,4.313-8.218,6.36-12.509
		c0.703-1.474,2.463-2.095,3.938-1.395c1.473,0.703,2.096,2.466,1.395,3.938c-2.092,4.384-4.278,8.684-6.498,12.782
		C431.983,357.172,430.968,357.731,429.919,357.731z M442.158,332.142c-0.383,0-0.772-0.075-1.146-0.233
		c-1.504-0.634-2.208-2.368-1.574-3.87c1.785-4.229,3.536-8.628,5.203-13.074c0.572-1.528,2.278-2.3,3.803-1.729
		c1.528,0.573,2.301,2.276,1.729,3.803c-1.695,4.52-3.476,8.993-5.291,13.295C444.404,331.463,443.309,332.142,442.158,332.142z
		 M452.153,305.563c-0.31,0-0.625-0.049-0.937-0.154c-1.547-0.517-2.381-2.192-1.864-3.739c1.461-4.367,2.89-8.89,4.25-13.441
		c0.468-1.563,2.109-2.451,3.676-1.985c1.562,0.468,2.452,2.113,1.985,3.676c-1.377,4.611-2.827,9.194-4.308,13.623
		C454.541,304.781,453.388,305.563,452.153,305.563z M460.285,278.393c-0.253,0-0.509-0.033-0.765-0.101
		c-1.576-0.422-2.512-2.04-2.091-3.616c1.192-4.461,2.354-9.066,3.455-13.686c0.378-1.584,1.965-2.567,3.559-2.188
		c1.586,0.379,2.566,1.971,2.188,3.559c-1.113,4.671-2.289,9.328-3.496,13.841C462.784,277.521,461.59,278.393,460.285,278.393z
		 M466.88,250.778c-0.204,0-0.411-0.022-0.617-0.066c-1.596-0.339-2.614-1.907-2.276-3.504c0.961-4.527,1.894-9.189,2.774-13.855
		c0.302-1.602,1.845-2.654,3.451-2.356c1.604,0.302,2.658,1.847,2.356,3.45c-0.888,4.711-1.831,9.417-2.802,13.989
		C469.473,249.825,468.246,250.778,466.88,250.778z M472.145,222.873c-0.162,0-0.324-0.013-0.488-0.04
		c-1.609-0.268-2.697-1.79-2.428-3.398c0.763-4.586,1.496-9.286,2.178-13.973c0.234-1.614,1.726-2.741,3.347-2.498
		c1.614,0.234,2.734,1.733,2.498,3.347c-0.687,4.726-1.425,9.468-2.196,14.092C474.814,221.849,473.563,222.873,472.145,222.873z
		 M476.239,194.766c-0.122,0-0.247-0.007-0.371-0.023c-1.619-0.203-2.766-1.681-2.563-3.299c0.586-4.663,1.134-9.392,1.63-14.057
		c0.173-1.621,1.624-2.779,3.251-2.625c1.622,0.173,2.797,1.628,2.625,3.251c-0.501,4.702-1.053,9.469-1.644,14.167
		C478.978,193.675,477.707,194.766,476.239,194.766z M479.248,166.512c-0.086,0-0.173-0.003-0.261-0.011
		c-1.624-0.142-2.827-1.575-2.685-3.199c0.415-4.742,0.785-9.49,1.099-14.111c0.11-1.628,1.543-2.855,3.148-2.747
		c1.628,0.11,2.857,1.521,2.747,3.148c-0.317,4.659-0.691,9.445-1.109,14.224C482.054,165.353,480.764,166.512,479.248,166.512z
		 M481.173,138.153c-0.046,0-0.093-0.001-0.141-0.003c-1.629-0.076-2.888-1.46-2.812-3.089c0.417-8.888,0.462-14.095,0.462-14.146
		c0.013-1.623,1.333-2.93,2.954-2.93c0.007,0,0.015,0,0.023,0c1.631,0.013,2.944,1.345,2.93,2.977
		c-0.002,0.215-0.046,5.361-0.469,14.377C484.047,136.919,482.741,138.153,481.173,138.153z"/>
</g>
<g>
</g>
<g>
</g>
<g>
</g>
<g>
</g>
<g>
</g>
<g>
</g>
<g>
</g>
<g>
</g>
<g>
</g>
<g>
</g>
<g>
</g>
<g>
</g>
<g>
</g>
<g>
</g>
<g>
</g>
</svg>
